<?xml version="1.0" encoding="UTF-8" standalone="no"?>
<!DOCTYPE svg PUBLIC "-//W3C//DTD SVG 1.1//EN"
 "http://www.w3.org/Graphics/SVG/1.1/DTD/svg11.dtd">
<!-- Generated by graphviz version 5.0.0 (20220707.1540)
 -->
<!-- Title: dependencies Pages: 1 -->
<svg width="528pt" height="174pt"
 viewBox="0.00 0.00 528.00 173.80" xmlns="http://www.w3.org/2000/svg" xmlns:xlink="http://www.w3.org/1999/xlink">
<g id="graph0" class="graph" transform="scale(1 1) rotate(0) translate(4 169.8)">
<title>dependencies</title>
<polygon fill="white" stroke="transparent" points="-4,4 -4,-169.8 524,-169.8 524,4 -4,4"/>
<text text-anchor="middle" x="260" y="-8.2" font-family="sans-serif" font-size="14.00">dependencies</text>
<g id="clust1" class="cluster">
<title>cluster_CoreModule</title>
<polygon fill="none" stroke="black" stroke-dasharray="1,5" points="8,-32.8 8,-157.8 512,-157.8 512,-32.8 8,-32.8"/>
</g>
<g id="clust6" class="cluster">
<title>cluster_CoreModule_providers</title>
<polygon fill="none" stroke="black" points="16,-40.8 16,-92.8 504,-92.8 504,-40.8 16,-40.8"/>
</g>
<!-- AuthMiddleware -->
<g id="node1" class="node">
<title>AuthMiddleware</title>
<ellipse fill="#fdb462" stroke="black" cx="419" cy="-66.8" rx="77.02" ry="18"/>
<text text-anchor="middle" x="419" y="-62.6" font-family="Times,serif" font-size="14.00">AuthMiddleware</text>
</g>
<!-- CoreModule -->
<g id="node4" class="node">
<title>CoreModule</title>
<polygon fill="#8dd3c7" stroke="black" points="308.27,-149.8 305.27,-153.8 284.27,-153.8 281.27,-149.8 221.73,-149.8 221.73,-113.8 308.27,-113.8 308.27,-149.8"/>
<text text-anchor="middle" x="265" y="-127.6" font-family="Times,serif" font-size="14.00">CoreModule</text>
</g>
<!-- AuthMiddleware&#45;&gt;CoreModule -->
<g id="edge1" class="edge">
<title>AuthMiddleware&#45;&gt;CoreModule</title>
<path fill="none" stroke="black" d="M419,-84.91C419,-104.14 419,-131.8 419,-131.8 419,-131.8 318.31,-131.8 318.31,-131.8"/>
<polygon fill="black" stroke="black" points="318.31,-128.3 308.31,-131.8 318.31,-135.3 318.31,-128.3"/>
</g>
<!-- AuthService -->
<g id="node2" class="node">
<title>AuthService</title>
<ellipse fill="#fdb462" stroke="black" cx="265" cy="-66.8" rx="59.11" ry="18"/>
<text text-anchor="middle" x="265" y="-62.6" font-family="Times,serif" font-size="14.00">AuthService</text>
</g>
<!-- AuthService&#45;&gt;CoreModule -->
<g id="edge2" class="edge">
<title>AuthService&#45;&gt;CoreModule</title>
<path fill="none" stroke="black" d="M265,-84.91C265,-84.91 265,-103.79 265,-103.79"/>
<polygon fill="black" stroke="black" points="261.5,-103.79 265,-113.79 268.5,-103.79 261.5,-103.79"/>
</g>
<!-- DispatcherService -->
<g id="node3" class="node">
<title>DispatcherService</title>
<ellipse fill="#fdb462" stroke="black" cx="106" cy="-66.8" rx="81.65" ry="18"/>
<text text-anchor="middle" x="106" y="-62.6" font-family="Times,serif" font-size="14.00">DispatcherService</text>
</g>
<!-- DispatcherService&#45;&gt;CoreModule -->
<g id="edge3" class="edge">
<title>DispatcherService&#45;&gt;CoreModule</title>
<path fill="none" stroke="black" d="M106,-84.91C106,-104.14 106,-131.8 106,-131.8 106,-131.8 211.55,-131.8 211.55,-131.8"/>
<polygon fill="black" stroke="black" points="211.55,-135.3 221.55,-131.8 211.55,-128.3 211.55,-135.3"/>
</g>
</g>
</svg>
