<?xml version="1.0" encoding="UTF-8" standalone="no"?>
<!DOCTYPE svg PUBLIC "-//W3C//DTD SVG 1.1//EN"
 "http://www.w3.org/Graphics/SVG/1.1/DTD/svg11.dtd">
<!-- Generated by graphviz version 5.0.0 (20220707.1540)
 -->
<!-- Title: dependencies Pages: 1 -->
<svg width="404pt" height="174pt"
 viewBox="0.00 0.00 404.00 173.80" xmlns="http://www.w3.org/2000/svg" xmlns:xlink="http://www.w3.org/1999/xlink">
<g id="graph0" class="graph" transform="scale(1 1) rotate(0) translate(4 169.8)">
<title>dependencies</title>
<polygon fill="white" stroke="transparent" points="-4,4 -4,-169.8 400,-169.8 400,4 -4,4"/>
<text text-anchor="middle" x="198" y="-8.2" font-family="sans-serif" font-size="14.00">dependencies</text>
<g id="clust1" class="cluster">
<title>cluster_CoreModule</title>
<polygon fill="none" stroke="black" stroke-dasharray="1,5" points="8,-32.8 8,-157.8 388,-157.8 388,-32.8 8,-32.8"/>
</g>
<g id="clust6" class="cluster">
<title>cluster_CoreModule_providers</title>
<polygon fill="none" stroke="black" points="16,-40.8 16,-92.8 380,-92.8 380,-40.8 16,-40.8"/>
</g>
<!-- DispatcherService -->
<g id="node1" class="node">
<title>DispatcherService</title>
<ellipse fill="#fdb462" stroke="black" cx="290" cy="-66.8" rx="81.65" ry="18"/>
<text text-anchor="middle" x="290" y="-62.6" font-family="Times,serif" font-size="14.00">DispatcherService</text>
</g>
<!-- CoreModule -->
<g id="node3" class="node">
<title>CoreModule</title>
<polygon fill="#8dd3c7" stroke="black" points="241.27,-149.8 238.27,-153.8 217.27,-153.8 214.27,-149.8 154.73,-149.8 154.73,-113.8 241.27,-113.8 241.27,-149.8"/>
<text text-anchor="middle" x="198" y="-127.6" font-family="Times,serif" font-size="14.00">CoreModule</text>
</g>
<!-- DispatcherService&#45;&gt;CoreModule -->
<g id="edge1" class="edge">
<title>DispatcherService&#45;&gt;CoreModule</title>
<path fill="none" stroke="black" d="M224.78,-77.83C224.78,-77.83 224.78,-103.58 224.78,-103.58"/>
<polygon fill="black" stroke="black" points="221.28,-103.58 224.78,-113.58 228.28,-103.58 221.28,-103.58"/>
</g>
<!-- NavigationService -->
<g id="node2" class="node">
<title>NavigationService</title>
<ellipse fill="#fdb462" stroke="black" cx="107" cy="-66.8" rx="82.81" ry="18"/>
<text text-anchor="middle" x="107" y="-62.6" font-family="Times,serif" font-size="14.00">NavigationService</text>
</g>
<!-- NavigationService&#45;&gt;CoreModule -->
<g id="edge2" class="edge">
<title>NavigationService&#45;&gt;CoreModule</title>
<path fill="none" stroke="black" d="M172.26,-78.12C172.26,-78.12 172.26,-103.74 172.26,-103.74"/>
<polygon fill="black" stroke="black" points="168.76,-103.74 172.26,-113.74 175.76,-103.74 168.76,-103.74"/>
</g>
</g>
</svg>
