<?xml version="1.0" encoding="UTF-8" standalone="no"?>
<!DOCTYPE svg PUBLIC "-//W3C//DTD SVG 1.1//EN"
 "http://www.w3.org/Graphics/SVG/1.1/DTD/svg11.dtd">
<!-- Generated by graphviz version 5.0.0 (20220707.1540)
 -->
<!-- Title: dependencies Pages: 1 -->
<svg width="1062pt" height="247pt"
 viewBox="0.00 0.00 1062.00 246.80" xmlns="http://www.w3.org/2000/svg" xmlns:xlink="http://www.w3.org/1999/xlink">
<g id="graph0" class="graph" transform="scale(1 1) rotate(0) translate(4 242.8)">
<title>dependencies</title>
<polygon fill="white" stroke="transparent" points="-4,4 -4,-242.8 1058,-242.8 1058,4 -4,4"/>
<text text-anchor="middle" x="527" y="-8.2" font-family="sans-serif" font-size="14.00">dependencies</text>
<g id="clust1" class="cluster">
<title>cluster_PageModule</title>
<polygon fill="none" stroke="black" stroke-dasharray="1,5" points="8,-32.8 8,-230.8 1046,-230.8 1046,-32.8 8,-32.8"/>
</g>
<g id="clust8" class="cluster">
<title>cluster_PageModule_exports</title>
<polygon fill="none" stroke="black" points="254,-170.8 254,-222.8 920,-222.8 920,-170.8 254,-170.8"/>
</g>
<g id="clust7" class="cluster">
<title>cluster_PageModule_imports</title>
<polygon fill="none" stroke="black" points="676,-40.8 676,-92.8 1038,-92.8 1038,-40.8 676,-40.8"/>
</g>
<g id="clust2" class="cluster">
<title>cluster_PageModule_declarations</title>
<polygon fill="none" stroke="black" points="16,-40.8 16,-92.8 668,-92.8 668,-40.8 16,-40.8"/>
</g>
<!-- PageHomeComponent -->
<g id="node1" class="node">
<title>PageHomeComponent</title>
<polygon fill="#ffffb3" stroke="black" points="660.26,-84.8 517.74,-84.8 517.74,-48.8 660.26,-48.8 660.26,-84.8"/>
<text text-anchor="middle" x="589" y="-62.6" font-family="Times,serif" font-size="14.00">PageHomeComponent</text>
</g>
<!-- PageModule -->
<g id="node5" class="node">
<title>PageModule</title>
<polygon fill="#8dd3c7" stroke="black" points="632.27,-149.8 629.27,-153.8 608.27,-153.8 605.27,-149.8 545.73,-149.8 545.73,-113.8 632.27,-113.8 632.27,-149.8"/>
<text text-anchor="middle" x="589" y="-127.6" font-family="Times,serif" font-size="14.00">PageModule</text>
</g>
<!-- PageHomeComponent&#45;&gt;PageModule -->
<g id="edge1" class="edge">
<title>PageHomeComponent&#45;&gt;PageModule</title>
<path fill="none" stroke="black" d="M589,-84.91C589,-84.91 589,-103.79 589,-103.79"/>
<polygon fill="black" stroke="black" points="585.5,-103.79 589,-113.79 592.5,-103.79 585.5,-103.79"/>
</g>
<!-- PageLoginComponent -->
<g id="node2" class="node">
<title>PageLoginComponent</title>
<polygon fill="#ffffb3" stroke="black" points="499.99,-84.8 358.01,-84.8 358.01,-48.8 499.99,-48.8 499.99,-84.8"/>
<text text-anchor="middle" x="429" y="-62.6" font-family="Times,serif" font-size="14.00">PageLoginComponent</text>
</g>
<!-- PageLoginComponent&#45;&gt;PageModule -->
<g id="edge2" class="edge">
<title>PageLoginComponent&#45;&gt;PageModule</title>
<path fill="none" stroke="black" d="M461.74,-84.81C461.74,-100.85 461.74,-121.8 461.74,-121.8 461.74,-121.8 535.56,-121.8 535.56,-121.8"/>
<polygon fill="black" stroke="black" points="535.56,-125.3 545.56,-121.8 535.56,-118.3 535.56,-125.3"/>
</g>
<!-- PageMessageComponent -->
<g id="node3" class="node">
<title>PageMessageComponent</title>
<polygon fill="#ffffb3" stroke="black" points="339.53,-84.8 182.47,-84.8 182.47,-48.8 339.53,-48.8 339.53,-84.8"/>
<text text-anchor="middle" x="261" y="-62.6" font-family="Times,serif" font-size="14.00">PageMessageComponent</text>
</g>
<!-- PageMessageComponent&#45;&gt;PageModule -->
<g id="edge3" class="edge">
<title>PageMessageComponent&#45;&gt;PageModule</title>
<path fill="none" stroke="black" d="M300.9,-85.07C300.9,-103.36 300.9,-128.8 300.9,-128.8 300.9,-128.8 535.56,-128.8 535.56,-128.8"/>
<polygon fill="black" stroke="black" points="535.56,-132.3 545.56,-128.8 535.56,-125.3 535.56,-132.3"/>
</g>
<!-- PageNewsComponent -->
<g id="node4" class="node">
<title>PageNewsComponent</title>
<polygon fill="#ffffb3" stroke="black" points="164.43,-84.8 23.57,-84.8 23.57,-48.8 164.43,-48.8 164.43,-84.8"/>
<text text-anchor="middle" x="94" y="-62.6" font-family="Times,serif" font-size="14.00">PageNewsComponent</text>
</g>
<!-- PageNewsComponent&#45;&gt;PageModule -->
<g id="edge4" class="edge">
<title>PageNewsComponent&#45;&gt;PageModule</title>
<path fill="none" stroke="black" d="M94,-84.93C94,-105.37 94,-135.8 94,-135.8 94,-135.8 535.51,-135.8 535.51,-135.8"/>
<polygon fill="black" stroke="black" points="535.51,-139.3 545.51,-135.8 535.51,-132.3 535.51,-139.3"/>
</g>
<!-- PageHomeComponent  -->
<g id="node9" class="node">
<title>PageHomeComponent </title>
<polygon fill="#fb8072" stroke="black" points="912.26,-214.8 765.74,-214.8 765.74,-178.8 912.26,-178.8 912.26,-214.8"/>
<text text-anchor="middle" x="839" y="-192.6" font-family="Times,serif" font-size="14.00">PageHomeComponent </text>
</g>
<!-- PageModule&#45;&gt;PageHomeComponent  -->
<g id="edge8" class="edge">
<title>PageModule&#45;&gt;PageHomeComponent </title>
<path fill="none" stroke="black" stroke-dasharray="5,2" d="M632.38,-142.8C687.08,-142.8 774.04,-142.8 774.04,-142.8 774.04,-142.8 774.04,-168.52 774.04,-168.52"/>
<polygon fill="black" stroke="black" points="770.54,-168.52 774.04,-178.52 777.54,-168.52 770.54,-168.52"/>
</g>
<!-- PageLoginComponent  -->
<g id="node10" class="node">
<title>PageLoginComponent </title>
<polygon fill="#fb8072" stroke="black" points="747.99,-214.8 602.01,-214.8 602.01,-178.8 747.99,-178.8 747.99,-214.8"/>
<text text-anchor="middle" x="675" y="-192.6" font-family="Times,serif" font-size="14.00">PageLoginComponent </text>
</g>
<!-- PageModule&#45;&gt;PageLoginComponent  -->
<g id="edge9" class="edge">
<title>PageModule&#45;&gt;PageLoginComponent </title>
<path fill="none" stroke="black" stroke-dasharray="5,2" d="M617.32,-149.91C617.32,-149.91 617.32,-168.79 617.32,-168.79"/>
<polygon fill="black" stroke="black" points="613.82,-168.79 617.32,-178.79 620.82,-168.79 613.82,-168.79"/>
</g>
<!-- PageMessageComponent  -->
<g id="node11" class="node">
<title>PageMessageComponent </title>
<polygon fill="#fb8072" stroke="black" points="584.53,-214.8 423.47,-214.8 423.47,-178.8 584.53,-178.8 584.53,-214.8"/>
<text text-anchor="middle" x="504" y="-192.6" font-family="Times,serif" font-size="14.00">PageMessageComponent </text>
</g>
<!-- PageModule&#45;&gt;PageMessageComponent  -->
<g id="edge10" class="edge">
<title>PageModule&#45;&gt;PageMessageComponent </title>
<path fill="none" stroke="black" stroke-dasharray="5,2" d="M565.07,-149.91C565.07,-149.91 565.07,-168.79 565.07,-168.79"/>
<polygon fill="black" stroke="black" points="561.57,-168.79 565.07,-178.79 568.57,-168.79 561.57,-168.79"/>
</g>
<!-- PageNewsComponent  -->
<g id="node12" class="node">
<title>PageNewsComponent </title>
<polygon fill="#fb8072" stroke="black" points="405.93,-214.8 262.07,-214.8 262.07,-178.8 405.93,-178.8 405.93,-214.8"/>
<text text-anchor="middle" x="334" y="-192.6" font-family="Times,serif" font-size="14.00">PageNewsComponent </text>
</g>
<!-- PageModule&#45;&gt;PageNewsComponent  -->
<g id="edge11" class="edge">
<title>PageModule&#45;&gt;PageNewsComponent </title>
<path fill="none" stroke="black" stroke-dasharray="5,2" d="M545.6,-142.8C484.9,-142.8 381.99,-142.8 381.99,-142.8 381.99,-142.8 381.99,-168.52 381.99,-168.52"/>
<polygon fill="black" stroke="black" points="378.49,-168.52 381.99,-178.52 385.49,-168.52 378.49,-168.52"/>
</g>
<!-- FeaturesModule -->
<g id="node6" class="node">
<title>FeaturesModule</title>
<polygon fill="#8dd3c7" stroke="black" points="1030.48,-84.8 1027.48,-88.8 1006.48,-88.8 1003.48,-84.8 923.52,-84.8 923.52,-48.8 1030.48,-48.8 1030.48,-84.8"/>
<text text-anchor="middle" x="977" y="-62.6" font-family="Times,serif" font-size="14.00">FeaturesModule</text>
</g>
<!-- FeaturesModule&#45;&gt;PageModule -->
<g id="edge5" class="edge">
<title>FeaturesModule&#45;&gt;PageModule</title>
<path fill="none" stroke="black" d="M977,-84.93C977,-105.37 977,-135.8 977,-135.8 977,-135.8 642.38,-135.8 642.38,-135.8"/>
<polygon fill="black" stroke="black" points="642.38,-132.3 632.38,-135.8 642.38,-139.3 642.38,-132.3"/>
</g>
<!-- LayoutsModule -->
<g id="node7" class="node">
<title>LayoutsModule</title>
<polygon fill="#8dd3c7" stroke="black" points="905.16,-84.8 902.16,-88.8 881.16,-88.8 878.16,-84.8 800.84,-84.8 800.84,-48.8 905.16,-48.8 905.16,-84.8"/>
<text text-anchor="middle" x="853" y="-62.6" font-family="Times,serif" font-size="14.00">LayoutsModule</text>
</g>
<!-- LayoutsModule&#45;&gt;PageModule -->
<g id="edge6" class="edge">
<title>LayoutsModule&#45;&gt;PageModule</title>
<path fill="none" stroke="black" d="M853,-85.07C853,-103.36 853,-128.8 853,-128.8 853,-128.8 642.3,-128.8 642.3,-128.8"/>
<polygon fill="black" stroke="black" points="642.3,-125.3 632.3,-128.8 642.3,-132.3 642.3,-125.3"/>
</g>
<!-- SharedModule -->
<g id="node8" class="node">
<title>SharedModule</title>
<polygon fill="#8dd3c7" stroke="black" points="782.43,-84.8 779.43,-88.8 758.43,-88.8 755.43,-84.8 683.57,-84.8 683.57,-48.8 782.43,-48.8 782.43,-84.8"/>
<text text-anchor="middle" x="733" y="-62.6" font-family="Times,serif" font-size="14.00">SharedModule</text>
</g>
<!-- SharedModule&#45;&gt;PageModule -->
<g id="edge7" class="edge">
<title>SharedModule&#45;&gt;PageModule</title>
<path fill="none" stroke="black" d="M715.76,-84.81C715.76,-100.85 715.76,-121.8 715.76,-121.8 715.76,-121.8 642.27,-121.8 642.27,-121.8"/>
<polygon fill="black" stroke="black" points="642.27,-118.3 632.27,-121.8 642.27,-125.3 642.27,-118.3"/>
</g>
</g>
</svg>
