<?xml version="1.0" encoding="UTF-8" standalone="no"?>
<!DOCTYPE svg PUBLIC "-//W3C//DTD SVG 1.1//EN"
 "http://www.w3.org/Graphics/SVG/1.1/DTD/svg11.dtd">
<!-- Generated by graphviz version 5.0.0 (20220707.1540)
 -->
<!-- Title: dependencies Pages: 1 -->
<svg width="1062pt" height="247pt"
 viewBox="0.00 0.00 1062.00 246.80" xmlns="http://www.w3.org/2000/svg" xmlns:xlink="http://www.w3.org/1999/xlink">
<g id="graph0" class="graph" transform="scale(1 1) rotate(0) translate(4 242.8)">
<title>dependencies</title>
<polygon fill="white" stroke="transparent" points="-4,4 -4,-242.8 1058,-242.8 1058,4 -4,4"/>
<text text-anchor="middle" x="527" y="-8.2" font-family="sans-serif" font-size="14.00">dependencies</text>
<g id="clust1" class="cluster">
<title>cluster_PageModule</title>
<polygon fill="none" stroke="black" stroke-dasharray="1,5" points="8,-32.8 8,-230.8 1046,-230.8 1046,-32.8 8,-32.8"/>
</g>
<g id="clust2" class="cluster">
<title>cluster_PageModule_declarations</title>
<polygon fill="none" stroke="black" points="386,-40.8 386,-92.8 1038,-92.8 1038,-40.8 386,-40.8"/>
</g>
<g id="clust8" class="cluster">
<title>cluster_PageModule_exports</title>
<polygon fill="none" stroke="black" points="129,-170.8 129,-222.8 795,-222.8 795,-170.8 129,-170.8"/>
</g>
<g id="clust7" class="cluster">
<title>cluster_PageModule_imports</title>
<polygon fill="none" stroke="black" points="16,-40.8 16,-92.8 378,-92.8 378,-40.8 16,-40.8"/>
</g>
<!-- PageHomeComponent -->
<g id="node1" class="node">
<title>PageHomeComponent</title>
<polygon fill="#ffffb3" stroke="black" points="1030.26,-84.8 887.74,-84.8 887.74,-48.8 1030.26,-48.8 1030.26,-84.8"/>
<text text-anchor="middle" x="959" y="-62.6" font-family="Times,serif" font-size="14.00">PageHomeComponent</text>
</g>
<!-- PageModule -->
<g id="node5" class="node">
<title>PageModule</title>
<polygon fill="#8dd3c7" stroke="black" points="507.27,-149.8 504.27,-153.8 483.27,-153.8 480.27,-149.8 420.73,-149.8 420.73,-113.8 507.27,-113.8 507.27,-149.8"/>
<text text-anchor="middle" x="464" y="-127.6" font-family="Times,serif" font-size="14.00">PageModule</text>
</g>
<!-- PageHomeComponent&#45;&gt;PageModule -->
<g id="edge1" class="edge">
<title>PageHomeComponent&#45;&gt;PageModule</title>
<path fill="none" stroke="black" d="M959,-84.93C959,-105.37 959,-135.8 959,-135.8 959,-135.8 517.49,-135.8 517.49,-135.8"/>
<polygon fill="black" stroke="black" points="517.49,-132.3 507.49,-135.8 517.49,-139.3 517.49,-132.3"/>
</g>
<!-- PageLoginComponent -->
<g id="node2" class="node">
<title>PageLoginComponent</title>
<polygon fill="#ffffb3" stroke="black" points="869.99,-84.8 728.01,-84.8 728.01,-48.8 869.99,-48.8 869.99,-84.8"/>
<text text-anchor="middle" x="799" y="-62.6" font-family="Times,serif" font-size="14.00">PageLoginComponent</text>
</g>
<!-- PageLoginComponent&#45;&gt;PageModule -->
<g id="edge2" class="edge">
<title>PageLoginComponent&#45;&gt;PageModule</title>
<path fill="none" stroke="black" d="M757.57,-85.07C757.57,-103.36 757.57,-128.8 757.57,-128.8 757.57,-128.8 517.32,-128.8 517.32,-128.8"/>
<polygon fill="black" stroke="black" points="517.32,-125.3 507.32,-128.8 517.32,-132.3 517.32,-125.3"/>
</g>
<!-- PageMessageComponent -->
<g id="node3" class="node">
<title>PageMessageComponent</title>
<polygon fill="#ffffb3" stroke="black" points="709.53,-84.8 552.47,-84.8 552.47,-48.8 709.53,-48.8 709.53,-84.8"/>
<text text-anchor="middle" x="631" y="-62.6" font-family="Times,serif" font-size="14.00">PageMessageComponent</text>
</g>
<!-- PageMessageComponent&#45;&gt;PageModule -->
<g id="edge3" class="edge">
<title>PageMessageComponent&#45;&gt;PageModule</title>
<path fill="none" stroke="black" d="M587.49,-84.81C587.49,-100.85 587.49,-121.8 587.49,-121.8 587.49,-121.8 517.54,-121.8 517.54,-121.8"/>
<polygon fill="black" stroke="black" points="517.54,-118.3 507.54,-121.8 517.54,-125.3 517.54,-118.3"/>
</g>
<!-- PageNewsComponent -->
<g id="node4" class="node">
<title>PageNewsComponent</title>
<polygon fill="#ffffb3" stroke="black" points="534.43,-84.8 393.57,-84.8 393.57,-48.8 534.43,-48.8 534.43,-84.8"/>
<text text-anchor="middle" x="464" y="-62.6" font-family="Times,serif" font-size="14.00">PageNewsComponent</text>
</g>
<!-- PageNewsComponent&#45;&gt;PageModule -->
<g id="edge4" class="edge">
<title>PageNewsComponent&#45;&gt;PageModule</title>
<path fill="none" stroke="black" d="M464,-84.91C464,-84.91 464,-103.79 464,-103.79"/>
<polygon fill="black" stroke="black" points="460.5,-103.79 464,-113.79 467.5,-103.79 460.5,-103.79"/>
</g>
<!-- PageHomeComponent  -->
<g id="node9" class="node">
<title>PageHomeComponent </title>
<polygon fill="#fb8072" stroke="black" points="787.26,-214.8 640.74,-214.8 640.74,-178.8 787.26,-178.8 787.26,-214.8"/>
<text text-anchor="middle" x="714" y="-192.6" font-family="Times,serif" font-size="14.00">PageHomeComponent </text>
</g>
<!-- PageModule&#45;&gt;PageHomeComponent  -->
<g id="edge8" class="edge">
<title>PageModule&#45;&gt;PageHomeComponent </title>
<path fill="none" stroke="black" stroke-dasharray="5,2" d="M507.27,-142.8C569.1,-142.8 675.32,-142.8 675.32,-142.8 675.32,-142.8 675.32,-168.52 675.32,-168.52"/>
<polygon fill="black" stroke="black" points="671.82,-168.52 675.32,-178.52 678.82,-168.52 671.82,-168.52"/>
</g>
<!-- PageLoginComponent  -->
<g id="node10" class="node">
<title>PageLoginComponent </title>
<polygon fill="#fb8072" stroke="black" points="622.99,-214.8 477.01,-214.8 477.01,-178.8 622.99,-178.8 622.99,-214.8"/>
<text text-anchor="middle" x="550" y="-192.6" font-family="Times,serif" font-size="14.00">PageLoginComponent </text>
</g>
<!-- PageModule&#45;&gt;PageLoginComponent  -->
<g id="edge9" class="edge">
<title>PageModule&#45;&gt;PageLoginComponent </title>
<path fill="none" stroke="black" stroke-dasharray="5,2" d="M492.32,-149.91C492.32,-149.91 492.32,-168.79 492.32,-168.79"/>
<polygon fill="black" stroke="black" points="488.82,-168.79 492.32,-178.79 495.82,-168.79 488.82,-168.79"/>
</g>
<!-- PageMessageComponent  -->
<g id="node11" class="node">
<title>PageMessageComponent </title>
<polygon fill="#fb8072" stroke="black" points="459.53,-214.8 298.47,-214.8 298.47,-178.8 459.53,-178.8 459.53,-214.8"/>
<text text-anchor="middle" x="379" y="-192.6" font-family="Times,serif" font-size="14.00">PageMessageComponent </text>
</g>
<!-- PageModule&#45;&gt;PageMessageComponent  -->
<g id="edge10" class="edge">
<title>PageModule&#45;&gt;PageMessageComponent </title>
<path fill="none" stroke="black" stroke-dasharray="5,2" d="M440.07,-149.91C440.07,-149.91 440.07,-168.79 440.07,-168.79"/>
<polygon fill="black" stroke="black" points="436.57,-168.79 440.07,-178.79 443.57,-168.79 436.57,-168.79"/>
</g>
<!-- PageNewsComponent  -->
<g id="node12" class="node">
<title>PageNewsComponent </title>
<polygon fill="#fb8072" stroke="black" points="280.93,-214.8 137.07,-214.8 137.07,-178.8 280.93,-178.8 280.93,-214.8"/>
<text text-anchor="middle" x="209" y="-192.6" font-family="Times,serif" font-size="14.00">PageNewsComponent </text>
</g>
<!-- PageModule&#45;&gt;PageNewsComponent  -->
<g id="edge11" class="edge">
<title>PageModule&#45;&gt;PageNewsComponent </title>
<path fill="none" stroke="black" stroke-dasharray="5,2" d="M420.49,-142.8C363.91,-142.8 272.24,-142.8 272.24,-142.8 272.24,-142.8 272.24,-168.52 272.24,-168.52"/>
<polygon fill="black" stroke="black" points="268.74,-168.52 272.24,-178.52 275.74,-168.52 268.74,-168.52"/>
</g>
<!-- FeaturesModule -->
<g id="node6" class="node">
<title>FeaturesModule</title>
<polygon fill="#8dd3c7" stroke="black" points="370.48,-84.8 367.48,-88.8 346.48,-88.8 343.48,-84.8 263.52,-84.8 263.52,-48.8 370.48,-48.8 370.48,-84.8"/>
<text text-anchor="middle" x="317" y="-62.6" font-family="Times,serif" font-size="14.00">FeaturesModule</text>
</g>
<!-- FeaturesModule&#45;&gt;PageModule -->
<g id="edge5" class="edge">
<title>FeaturesModule&#45;&gt;PageModule</title>
<path fill="none" stroke="black" d="M334.49,-84.81C334.49,-100.85 334.49,-121.8 334.49,-121.8 334.49,-121.8 410.51,-121.8 410.51,-121.8"/>
<polygon fill="black" stroke="black" points="410.51,-125.3 420.51,-121.8 410.51,-118.3 410.51,-125.3"/>
</g>
<!-- LayoutsModule -->
<g id="node7" class="node">
<title>LayoutsModule</title>
<polygon fill="#8dd3c7" stroke="black" points="245.16,-84.8 242.16,-88.8 221.16,-88.8 218.16,-84.8 140.84,-84.8 140.84,-48.8 245.16,-48.8 245.16,-84.8"/>
<text text-anchor="middle" x="193" y="-62.6" font-family="Times,serif" font-size="14.00">LayoutsModule</text>
</g>
<!-- LayoutsModule&#45;&gt;PageModule -->
<g id="edge6" class="edge">
<title>LayoutsModule&#45;&gt;PageModule</title>
<path fill="none" stroke="black" d="M193,-85.07C193,-103.36 193,-128.8 193,-128.8 193,-128.8 410.46,-128.8 410.46,-128.8"/>
<polygon fill="black" stroke="black" points="410.46,-132.3 420.46,-128.8 410.46,-125.3 410.46,-132.3"/>
</g>
<!-- SharedModule -->
<g id="node8" class="node">
<title>SharedModule</title>
<polygon fill="#8dd3c7" stroke="black" points="122.43,-84.8 119.43,-88.8 98.43,-88.8 95.43,-84.8 23.57,-84.8 23.57,-48.8 122.43,-48.8 122.43,-84.8"/>
<text text-anchor="middle" x="73" y="-62.6" font-family="Times,serif" font-size="14.00">SharedModule</text>
</g>
<!-- SharedModule&#45;&gt;PageModule -->
<g id="edge7" class="edge">
<title>SharedModule&#45;&gt;PageModule</title>
<path fill="none" stroke="black" d="M73,-84.93C73,-105.37 73,-135.8 73,-135.8 73,-135.8 410.66,-135.8 410.66,-135.8"/>
<polygon fill="black" stroke="black" points="410.66,-139.3 420.66,-135.8 410.66,-132.3 410.66,-139.3"/>
</g>
</g>
</svg>
