<?xml version="1.0" encoding="UTF-8" standalone="no"?>
<!DOCTYPE svg PUBLIC "-//W3C//DTD SVG 1.1//EN"
 "http://www.w3.org/Graphics/SVG/1.1/DTD/svg11.dtd">
<!-- Generated by graphviz version 5.0.0 (20220707.1540)
 -->
<!-- Title: dependencies Pages: 1 -->
<svg width="402pt" height="174pt"
 viewBox="0.00 0.00 402.00 173.80" xmlns="http://www.w3.org/2000/svg" xmlns:xlink="http://www.w3.org/1999/xlink">
<g id="graph0" class="graph" transform="scale(1 1) rotate(0) translate(4 169.8)">
<title>dependencies</title>
<polygon fill="white" stroke="transparent" points="-4,4 -4,-169.8 398,-169.8 398,4 -4,4"/>
<text text-anchor="middle" x="197" y="-8.2" font-family="sans-serif" font-size="14.00">dependencies</text>
<g id="clust1" class="cluster">
<title>cluster_PageModule</title>
<polygon fill="none" stroke="black" stroke-dasharray="1,5" points="8,-32.8 8,-157.8 386,-157.8 386,-32.8 8,-32.8"/>
</g>
<g id="clust3" class="cluster">
<title>cluster_PageModule_imports</title>
<polygon fill="none" stroke="black" points="16,-40.8 16,-92.8 378,-92.8 378,-40.8 16,-40.8"/>
</g>
<!-- FeaturesModule -->
<g id="node1" class="node">
<title>FeaturesModule</title>
<polygon fill="#8dd3c7" stroke="black" points="370.48,-84.8 367.48,-88.8 346.48,-88.8 343.48,-84.8 263.52,-84.8 263.52,-48.8 370.48,-48.8 370.48,-84.8"/>
<text text-anchor="middle" x="317" y="-62.6" font-family="Times,serif" font-size="14.00">FeaturesModule</text>
</g>
<!-- PageModule -->
<g id="node4" class="node">
<title>PageModule</title>
<polygon fill="#8dd3c7" stroke="black" points="236.27,-149.8 233.27,-153.8 212.27,-153.8 209.27,-149.8 149.73,-149.8 149.73,-113.8 236.27,-113.8 236.27,-149.8"/>
<text text-anchor="middle" x="193" y="-127.6" font-family="Times,serif" font-size="14.00">PageModule</text>
</g>
<!-- FeaturesModule&#45;&gt;PageModule -->
<g id="edge1" class="edge">
<title>FeaturesModule&#45;&gt;PageModule</title>
<path fill="none" stroke="black" d="M317,-84.91C317,-104.14 317,-131.8 317,-131.8 317,-131.8 246.37,-131.8 246.37,-131.8"/>
<polygon fill="black" stroke="black" points="246.37,-128.3 236.37,-131.8 246.37,-135.3 246.37,-128.3"/>
</g>
<!-- LayoutsModule -->
<g id="node2" class="node">
<title>LayoutsModule</title>
<polygon fill="#8dd3c7" stroke="black" points="245.16,-84.8 242.16,-88.8 221.16,-88.8 218.16,-84.8 140.84,-84.8 140.84,-48.8 245.16,-48.8 245.16,-84.8"/>
<text text-anchor="middle" x="193" y="-62.6" font-family="Times,serif" font-size="14.00">LayoutsModule</text>
</g>
<!-- LayoutsModule&#45;&gt;PageModule -->
<g id="edge2" class="edge">
<title>LayoutsModule&#45;&gt;PageModule</title>
<path fill="none" stroke="black" d="M193,-84.91C193,-84.91 193,-103.79 193,-103.79"/>
<polygon fill="black" stroke="black" points="189.5,-103.79 193,-113.79 196.5,-103.79 189.5,-103.79"/>
</g>
<!-- SharedModule -->
<g id="node3" class="node">
<title>SharedModule</title>
<polygon fill="#8dd3c7" stroke="black" points="122.43,-84.8 119.43,-88.8 98.43,-88.8 95.43,-84.8 23.57,-84.8 23.57,-48.8 122.43,-48.8 122.43,-84.8"/>
<text text-anchor="middle" x="73" y="-62.6" font-family="Times,serif" font-size="14.00">SharedModule</text>
</g>
<!-- SharedModule&#45;&gt;PageModule -->
<g id="edge3" class="edge">
<title>SharedModule&#45;&gt;PageModule</title>
<path fill="none" stroke="black" d="M73,-84.91C73,-104.14 73,-131.8 73,-131.8 73,-131.8 139.68,-131.8 139.68,-131.8"/>
<polygon fill="black" stroke="black" points="139.68,-135.3 149.68,-131.8 139.68,-128.3 139.68,-135.3"/>
</g>
</g>
</svg>
