<?xml version="1.0" encoding="UTF-8" standalone="no"?>
<!DOCTYPE svg PUBLIC "-//W3C//DTD SVG 1.1//EN"
 "http://www.w3.org/Graphics/SVG/1.1/DTD/svg11.dtd">
<!-- Generated by graphviz version 5.0.0 (20220707.1540)
 -->
<!-- Title: dependencies Pages: 1 -->
<svg width="524pt" height="247pt"
 viewBox="0.00 0.00 524.00 246.80" xmlns="http://www.w3.org/2000/svg" xmlns:xlink="http://www.w3.org/1999/xlink">
<g id="graph0" class="graph" transform="scale(1 1) rotate(0) translate(4 242.8)">
<title>dependencies</title>
<polygon fill="white" stroke="transparent" points="-4,4 -4,-242.8 520,-242.8 520,4 -4,4"/>
<text text-anchor="middle" x="258" y="-8.2" font-family="sans-serif" font-size="14.00">dependencies</text>
<g id="clust1" class="cluster">
<title>cluster_AppModule</title>
<polygon fill="none" stroke="black" stroke-dasharray="1,5" points="8,-32.8 8,-230.8 508,-230.8 508,-32.8 8,-32.8"/>
</g>
<g id="clust4" class="cluster">
<title>cluster_AppModule_imports</title>
<polygon fill="none" stroke="black" points="146,-40.8 146,-92.8 500,-92.8 500,-40.8 146,-40.8"/>
</g>
<g id="clust6" class="cluster">
<title>cluster_AppModule_bootstrap</title>
<polygon fill="none" stroke="black" points="187,-170.8 187,-222.8 311,-222.8 311,-170.8 187,-170.8"/>
</g>
<g id="clust2" class="cluster">
<title>cluster_AppModule_declarations</title>
<polygon fill="none" stroke="black" points="16,-40.8 16,-92.8 138,-92.8 138,-40.8 16,-40.8"/>
</g>
<!-- AppComponent -->
<g id="node1" class="node">
<title>AppComponent</title>
<polygon fill="#ffffb3" stroke="black" points="129.94,-84.8 24.06,-84.8 24.06,-48.8 129.94,-48.8 129.94,-84.8"/>
<text text-anchor="middle" x="77" y="-62.6" font-family="Times,serif" font-size="14.00">AppComponent</text>
</g>
<!-- AppModule -->
<g id="node2" class="node">
<title>AppModule</title>
<polygon fill="#8dd3c7" stroke="black" points="290.66,-149.8 287.66,-153.8 266.66,-153.8 263.66,-149.8 207.34,-149.8 207.34,-113.8 290.66,-113.8 290.66,-149.8"/>
<text text-anchor="middle" x="249" y="-127.6" font-family="Times,serif" font-size="14.00">AppModule</text>
</g>
<!-- AppComponent&#45;&gt;AppModule -->
<g id="edge1" class="edge">
<title>AppComponent&#45;&gt;AppModule</title>
<path fill="none" stroke="black" d="M77,-84.91C77,-104.14 77,-131.8 77,-131.8 77,-131.8 196.92,-131.8 196.92,-131.8"/>
<polygon fill="black" stroke="black" points="196.92,-135.3 206.92,-131.8 196.92,-128.3 196.92,-135.3"/>
</g>
<!-- AppComponent  -->
<g id="node6" class="node">
<title>AppComponent </title>
<polygon fill="#80b1d3" stroke="black" points="303.44,-214.8 194.56,-214.8 194.56,-178.8 303.44,-178.8 303.44,-214.8"/>
<text text-anchor="middle" x="249" y="-192.6" font-family="Times,serif" font-size="14.00">AppComponent </text>
</g>
<!-- AppModule&#45;&gt;AppComponent  -->
<g id="edge5" class="edge">
<title>AppModule&#45;&gt;AppComponent </title>
<path fill="none" stroke="black" stroke-dasharray="1,5" d="M249,-149.91C249,-149.91 249,-168.79 249,-168.79"/>
<polygon fill="black" stroke="black" points="245.5,-168.79 249,-178.79 252.5,-168.79 245.5,-168.79"/>
</g>
<!-- AppRoutingModule -->
<g id="node3" class="node">
<title>AppRoutingModule</title>
<polygon fill="#8dd3c7" stroke="black" points="492.28,-84.8 489.28,-88.8 468.28,-88.8 465.28,-84.8 363.72,-84.8 363.72,-48.8 492.28,-48.8 492.28,-84.8"/>
<text text-anchor="middle" x="428" y="-62.6" font-family="Times,serif" font-size="14.00">AppRoutingModule</text>
</g>
<!-- AppRoutingModule&#45;&gt;AppModule -->
<g id="edge2" class="edge">
<title>AppRoutingModule&#45;&gt;AppModule</title>
<path fill="none" stroke="black" d="M428,-84.91C428,-104.14 428,-131.8 428,-131.8 428,-131.8 300.97,-131.8 300.97,-131.8"/>
<polygon fill="black" stroke="black" points="300.97,-128.3 290.97,-131.8 300.97,-135.3 300.97,-128.3"/>
</g>
<!-- CoreModule -->
<g id="node4" class="node">
<title>CoreModule</title>
<polygon fill="#8dd3c7" stroke="black" points="345.27,-84.8 342.27,-88.8 321.27,-88.8 318.27,-84.8 258.73,-84.8 258.73,-48.8 345.27,-48.8 345.27,-84.8"/>
<text text-anchor="middle" x="302" y="-62.6" font-family="Times,serif" font-size="14.00">CoreModule</text>
</g>
<!-- CoreModule&#45;&gt;AppModule -->
<g id="edge3" class="edge">
<title>CoreModule&#45;&gt;AppModule</title>
<path fill="none" stroke="black" d="M274.72,-84.91C274.72,-84.91 274.72,-103.79 274.72,-103.79"/>
<polygon fill="black" stroke="black" points="271.22,-103.79 274.72,-113.79 278.22,-103.79 271.22,-103.79"/>
</g>
<!-- PageModule -->
<g id="node5" class="node">
<title>PageModule</title>
<polygon fill="#8dd3c7" stroke="black" points="240.27,-84.8 237.27,-88.8 216.27,-88.8 213.27,-84.8 153.73,-84.8 153.73,-48.8 240.27,-48.8 240.27,-84.8"/>
<text text-anchor="middle" x="197" y="-62.6" font-family="Times,serif" font-size="14.00">PageModule</text>
</g>
<!-- PageModule&#45;&gt;AppModule -->
<g id="edge4" class="edge">
<title>PageModule&#45;&gt;AppModule</title>
<path fill="none" stroke="black" d="M223.78,-84.91C223.78,-84.91 223.78,-103.79 223.78,-103.79"/>
<polygon fill="black" stroke="black" points="220.28,-103.79 223.78,-113.79 227.28,-103.79 220.28,-103.79"/>
</g>
</g>
</svg>
