<?xml version="1.0" encoding="UTF-8" standalone="no"?>
<!DOCTYPE svg PUBLIC "-//W3C//DTD SVG 1.1//EN"
 "http://www.w3.org/Graphics/SVG/1.1/DTD/svg11.dtd">
<!-- Generated by graphviz version 5.0.0 (20220707.1540)
 -->
<!-- Title: dependencies Pages: 1 -->
<svg width="790pt" height="323pt"
 viewBox="0.00 0.00 790.00 322.80" xmlns="http://www.w3.org/2000/svg" xmlns:xlink="http://www.w3.org/1999/xlink">
<g id="graph0" class="graph" transform="scale(1 1) rotate(0) translate(4 318.8)">
<title>dependencies</title>
<polygon fill="white" stroke="transparent" points="-4,4 -4,-318.8 786,-318.8 786,4 -4,4"/>
<text text-anchor="middle" x="391" y="-8.2" font-family="sans-serif" font-size="14.00">dependencies</text>
<g id="clust1" class="cluster">
<title>cluster_AppModule</title>
<polygon fill="none" stroke="black" stroke-dasharray="1,5" points="116,-108.8 116,-306.8 616,-306.8 616,-108.8 116,-108.8"/>
</g>
<g id="clust2" class="cluster">
<title>cluster_AppModule_declarations</title>
<polygon fill="none" stroke="black" points="486,-116.8 486,-168.8 608,-168.8 608,-116.8 486,-116.8"/>
</g>
<g id="clust4" class="cluster">
<title>cluster_AppModule_imports</title>
<polygon fill="none" stroke="black" points="124,-116.8 124,-168.8 478,-168.8 478,-116.8 124,-116.8"/>
</g>
<g id="clust6" class="cluster">
<title>cluster_AppModule_bootstrap</title>
<polygon fill="none" stroke="black" points="281,-246.8 281,-298.8 405,-298.8 405,-246.8 281,-246.8"/>
</g>
<g id="clust14" class="cluster">
<title>cluster_CoreModule</title>
<polygon fill="none" stroke="black" stroke-dasharray="1,5" points="8,-32.8 8,-100.8 204,-100.8 204,-32.8 8,-32.8"/>
</g>
<g id="clust19" class="cluster">
<title>cluster_CoreModule_providers</title>
<polygon fill="none" stroke="black" points="16,-40.8 16,-92.8 196,-92.8 196,-40.8 16,-40.8"/>
</g>
<g id="clust38" class="cluster">
<title>cluster_PageModule</title>
<polygon fill="none" stroke="black" stroke-dasharray="1,5" points="212,-32.8 212,-100.8 590,-100.8 590,-32.8 212,-32.8"/>
</g>
<g id="clust40" class="cluster">
<title>cluster_PageModule_imports</title>
<polygon fill="none" stroke="black" points="220,-40.8 220,-92.8 582,-92.8 582,-40.8 220,-40.8"/>
</g>
<g id="clust44" class="cluster">
<title>cluster_SharedModule</title>
<polygon fill="none" stroke="black" stroke-dasharray="1,5" points="624,-108.8 624,-176.8 774,-176.8 774,-108.8 624,-108.8"/>
</g>
<g id="clust47" class="cluster">
<title>cluster_SharedModule_exports</title>
<polygon fill="none" stroke="black" points="632,-116.8 632,-168.8 766,-168.8 766,-116.8 632,-116.8"/>
</g>
<!-- AppComponent -->
<g id="node1" class="node">
<title>AppComponent</title>
<polygon fill="#ffffb3" stroke="black" points="599.94,-160.8 494.06,-160.8 494.06,-124.8 599.94,-124.8 599.94,-160.8"/>
<text text-anchor="middle" x="547" y="-138.6" font-family="Times,serif" font-size="14.00">AppComponent</text>
</g>
<!-- AppModule -->
<g id="node2" class="node">
<title>AppModule</title>
<polygon fill="#8dd3c7" stroke="black" points="384.66,-225.8 381.66,-229.8 360.66,-229.8 357.66,-225.8 301.34,-225.8 301.34,-189.8 384.66,-189.8 384.66,-225.8"/>
<text text-anchor="middle" x="343" y="-203.6" font-family="Times,serif" font-size="14.00">AppModule</text>
</g>
<!-- AppComponent&#45;&gt;AppModule -->
<g id="edge1" class="edge">
<title>AppComponent&#45;&gt;AppModule</title>
<path fill="none" stroke="black" d="M547,-160.91C547,-180.14 547,-207.8 547,-207.8 547,-207.8 394.77,-207.8 394.77,-207.8"/>
<polygon fill="black" stroke="black" points="394.77,-204.3 384.77,-207.8 394.77,-211.3 394.77,-204.3"/>
</g>
<!-- AppComponent  -->
<g id="node6" class="node">
<title>AppComponent </title>
<polygon fill="#80b1d3" stroke="black" points="397.44,-290.8 288.56,-290.8 288.56,-254.8 397.44,-254.8 397.44,-290.8"/>
<text text-anchor="middle" x="343" y="-268.6" font-family="Times,serif" font-size="14.00">AppComponent </text>
</g>
<!-- AppModule&#45;&gt;AppComponent  -->
<g id="edge5" class="edge">
<title>AppModule&#45;&gt;AppComponent </title>
<path fill="none" stroke="black" stroke-dasharray="1,5" d="M343,-225.91C343,-225.91 343,-244.79 343,-244.79"/>
<polygon fill="black" stroke="black" points="339.5,-244.79 343,-254.79 346.5,-244.79 339.5,-244.79"/>
</g>
<!-- AppRoutingModule -->
<g id="node3" class="node">
<title>AppRoutingModule</title>
<polygon fill="#8dd3c7" stroke="black" points="470.28,-160.8 467.28,-164.8 446.28,-164.8 443.28,-160.8 341.72,-160.8 341.72,-124.8 470.28,-124.8 470.28,-160.8"/>
<text text-anchor="middle" x="406" y="-138.6" font-family="Times,serif" font-size="14.00">AppRoutingModule</text>
</g>
<!-- AppRoutingModule&#45;&gt;AppModule -->
<g id="edge2" class="edge">
<title>AppRoutingModule&#45;&gt;AppModule</title>
<path fill="none" stroke="black" d="M363.22,-160.91C363.22,-160.91 363.22,-179.79 363.22,-179.79"/>
<polygon fill="black" stroke="black" points="359.72,-179.79 363.22,-189.79 366.72,-179.79 359.72,-179.79"/>
</g>
<!-- CoreModule -->
<g id="node4" class="node">
<title>CoreModule</title>
<polygon fill="#8dd3c7" stroke="black" points="218.27,-160.8 215.27,-164.8 194.27,-164.8 191.27,-160.8 131.73,-160.8 131.73,-124.8 218.27,-124.8 218.27,-160.8"/>
<text text-anchor="middle" x="175" y="-138.6" font-family="Times,serif" font-size="14.00">CoreModule</text>
</g>
<!-- CoreModule&#45;&gt;AppModule -->
<g id="edge3" class="edge">
<title>CoreModule&#45;&gt;AppModule</title>
<path fill="none" stroke="black" d="M175,-160.91C175,-180.14 175,-207.8 175,-207.8 175,-207.8 291.04,-207.8 291.04,-207.8"/>
<polygon fill="black" stroke="black" points="291.04,-211.3 301.04,-207.8 291.04,-204.3 291.04,-211.3"/>
</g>
<!-- PageModule -->
<g id="node5" class="node">
<title>PageModule</title>
<polygon fill="#8dd3c7" stroke="black" points="323.27,-160.8 320.27,-164.8 299.27,-164.8 296.27,-160.8 236.73,-160.8 236.73,-124.8 323.27,-124.8 323.27,-160.8"/>
<text text-anchor="middle" x="280" y="-138.6" font-family="Times,serif" font-size="14.00">PageModule</text>
</g>
<!-- PageModule&#45;&gt;AppModule -->
<g id="edge4" class="edge">
<title>PageModule&#45;&gt;AppModule</title>
<path fill="none" stroke="black" d="M312.28,-160.91C312.28,-160.91 312.28,-179.79 312.28,-179.79"/>
<polygon fill="black" stroke="black" points="308.78,-179.79 312.28,-189.79 315.78,-179.79 308.78,-179.79"/>
</g>
<!-- DispatcherService -->
<g id="node7" class="node">
<title>DispatcherService</title>
<ellipse fill="#fdb462" stroke="black" cx="106" cy="-66.8" rx="81.65" ry="18"/>
<text text-anchor="middle" x="106" y="-62.6" font-family="Times,serif" font-size="14.00">DispatcherService</text>
</g>
<!-- DispatcherService&#45;&gt;CoreModule -->
<g id="edge6" class="edge">
<title>DispatcherService&#45;&gt;CoreModule</title>
<path fill="none" stroke="black" d="M159.72,-80.39C159.72,-80.39 159.72,-114.76 159.72,-114.76"/>
<polygon fill="black" stroke="black" points="156.22,-114.76 159.72,-124.76 163.22,-114.76 156.22,-114.76"/>
</g>
<!-- FeaturesModule -->
<g id="node8" class="node">
<title>FeaturesModule</title>
<polygon fill="#8dd3c7" stroke="black" points="457.48,-84.8 454.48,-88.8 433.48,-88.8 430.48,-84.8 350.52,-84.8 350.52,-48.8 457.48,-48.8 457.48,-84.8"/>
<text text-anchor="middle" x="404" y="-62.6" font-family="Times,serif" font-size="14.00">FeaturesModule</text>
</g>
<!-- FeaturesModule&#45;&gt;PageModule -->
<g id="edge7" class="edge">
<title>FeaturesModule&#45;&gt;PageModule</title>
<path fill="none" stroke="black" d="M350.21,-66.8C342.42,-66.8 336.97,-66.8 336.97,-66.8 336.97,-66.8 336.97,-142.8 336.97,-142.8 336.97,-142.8 333.47,-142.8 333.47,-142.8"/>
<polygon fill="black" stroke="black" points="333.47,-139.3 323.47,-142.8 333.47,-146.3 333.47,-139.3"/>
</g>
<!-- LayoutsModule -->
<g id="node9" class="node">
<title>LayoutsModule</title>
<polygon fill="#8dd3c7" stroke="black" points="332.16,-84.8 329.16,-88.8 308.16,-88.8 305.16,-84.8 227.84,-84.8 227.84,-48.8 332.16,-48.8 332.16,-84.8"/>
<text text-anchor="middle" x="280" y="-62.6" font-family="Times,serif" font-size="14.00">LayoutsModule</text>
</g>
<!-- LayoutsModule&#45;&gt;PageModule -->
<g id="edge8" class="edge">
<title>LayoutsModule&#45;&gt;PageModule</title>
<path fill="none" stroke="black" d="M265.54,-84.81C265.54,-84.81 265.54,-114.65 265.54,-114.65"/>
<polygon fill="black" stroke="black" points="262.04,-114.65 265.54,-124.65 269.04,-114.65 262.04,-114.65"/>
</g>
<!-- SharedModule -->
<g id="node10" class="node">
<title>SharedModule</title>
<polygon fill="#8dd3c7" stroke="black" points="574.43,-84.8 571.43,-88.8 550.43,-88.8 547.43,-84.8 475.57,-84.8 475.57,-48.8 574.43,-48.8 574.43,-84.8"/>
<text text-anchor="middle" x="525" y="-62.6" font-family="Times,serif" font-size="14.00">SharedModule</text>
</g>
<!-- SharedModule&#45;&gt;PageModule -->
<g id="edge9" class="edge">
<title>SharedModule&#45;&gt;PageModule</title>
<path fill="none" stroke="black" d="M485.03,-84.91C485.03,-94.7 485.03,-104.8 485.03,-104.8 485.03,-104.8 294.46,-104.8 294.46,-104.8 294.46,-104.8 294.46,-114.69 294.46,-114.69"/>
<polygon fill="black" stroke="black" points="290.96,-114.69 294.46,-124.69 297.96,-114.69 290.96,-114.69"/>
</g>
<!-- NgImportModule  -->
<g id="node11" class="node">
<title>NgImportModule </title>
<polygon fill="#fb8072" stroke="black" points="758.27,-160.8 639.73,-160.8 639.73,-124.8 758.27,-124.8 758.27,-160.8"/>
<text text-anchor="middle" x="699" y="-138.6" font-family="Times,serif" font-size="14.00">NgImportModule </text>
</g>
<!-- SharedModule&#45;&gt;NgImportModule  -->
<g id="edge10" class="edge">
<title>SharedModule&#45;&gt;NgImportModule </title>
<path fill="none" stroke="black" stroke-dasharray="5,2" d="M574.4,-66.8C625.84,-66.8 699,-66.8 699,-66.8 699,-66.8 699,-114.79 699,-114.79"/>
<polygon fill="black" stroke="black" points="695.5,-114.79 699,-124.79 702.5,-114.79 695.5,-114.79"/>
</g>
</g>
</svg>
